<svg width="138" height="32" viewBox="0 0 138 32" fill="none" xmlns="http://www.w3.org/2000/svg">
<path d="M45.542 19.68C42.962 19.68 41.318 17.904 41.318 15.276C41.318 12.732 42.926 10.92 45.542 10.92C47.7261 10.92 49.2261 12.192 49.5861 14.34H48.1101C47.8461 13.02 46.874 12.216 45.542 12.216C43.85 12.216 42.794 13.404 42.794 15.276C42.794 17.196 43.85 18.372 45.542 18.372C46.8981 18.372 47.8461 17.592 48.1101 16.26H49.5861C49.202 18.444 47.7381 19.68 45.542 19.68ZM52.2199 19.5H50.8039V13.14H51.9439L52.1119 14.388C52.5199 13.524 53.2639 13.068 54.3199 13.068H54.5599V14.448H54.3199C52.9999 14.448 52.2199 15.156 52.2199 16.356V19.5ZM58.2556 19.68C56.3116 19.68 54.9796 18.288 54.9796 16.344C54.9796 14.244 56.3596 12.948 58.1356 12.948C59.9356 12.948 61.1356 14.208 61.1716 16.272V16.608H56.3956C56.4916 17.724 57.1876 18.48 58.2676 18.48C58.9996 18.48 59.5516 18.12 59.7676 17.484H61.1476C60.8236 18.852 59.7556 19.68 58.2556 19.68ZM56.4556 15.612H59.7076C59.5276 14.7 58.9636 14.148 58.1356 14.148C57.2956 14.148 56.6716 14.7 56.4556 15.612ZM64.3765 19.632C62.9125 19.632 61.9525 18.924 61.9645 17.736C61.9765 16.248 63.4525 15.936 64.6885 15.792C65.6485 15.684 66.3565 15.648 66.3685 15.144C66.3565 14.52 65.8765 14.112 65.0605 14.112C64.2205 14.112 63.6205 14.568 63.5365 15.228H62.1085C62.2405 13.884 63.4405 12.948 65.0845 12.948C66.8005 12.948 67.7485 13.884 67.7485 15.24V18.12C67.7485 18.3 67.8445 18.396 68.0605 18.396H68.4085V19.5H67.7365C67.0885 19.5 66.6925 19.236 66.5845 18.756C66.5605 18.696 66.5365 18.612 66.5245 18.54C66.1525 19.224 65.4565 19.632 64.3765 19.632ZM64.6645 18.516C65.6365 18.516 66.3685 17.964 66.3685 17.112V16.224C66.1285 16.596 65.5165 16.68 64.8445 16.764C64.0525 16.86 63.3925 16.968 63.3925 17.64C63.3925 18.192 63.8365 18.516 64.6645 18.516ZM72.8151 19.5H71.9991C70.6191 19.5 69.8751 18.816 69.8751 17.556V14.34H68.7591V13.14H69.8751V10.968H71.2911V13.14H72.9351V14.34H71.2911V17.46C71.2911 18 71.5671 18.3 72.0951 18.3H72.8151V19.5ZM76.7709 19.68C74.7069 19.68 73.5069 18.228 73.5069 16.26C73.5069 14.184 74.9109 12.948 76.7709 12.948C78.8229 12.948 80.0229 14.388 80.0229 16.26C80.0229 18.408 78.6669 19.68 76.7709 19.68ZM76.7709 18.468C77.9109 18.468 78.5829 17.532 78.5829 16.26C78.5829 15 77.8749 14.16 76.7709 14.16C75.6669 14.16 74.9469 15 74.9469 16.26C74.9469 17.652 75.7269 18.468 76.7709 18.468ZM82.548 19.5H81.132V13.14H82.272L82.44 14.388C82.848 13.524 83.592 13.068 84.648 13.068H84.888V14.448H84.648C83.328 14.448 82.548 15.156 82.548 16.356V19.5ZM90.0288 19.5H88.5888V11.1H92.8488C94.5648 11.1 95.6088 12.24 95.6088 13.74C95.6088 15.432 94.4328 16.464 92.8488 16.464H90.0288V19.5ZM90.0288 12.396V15.168H92.7768C93.6768 15.168 94.1448 14.496 94.1448 13.74C94.1448 12.948 93.6048 12.396 92.7768 12.396H90.0288ZM98.1691 19.5H96.7531V13.14H97.8931L98.0611 14.388C98.4691 13.524 99.2131 13.068 100.269 13.068H100.509V14.448H100.269C98.9491 14.448 98.1691 15.156 98.1691 16.356V19.5ZM104.193 19.68C102.129 19.68 100.929 18.228 100.929 16.26C100.929 14.184 102.333 12.948 104.193 12.948C106.245 12.948 107.445 14.388 107.445 16.26C107.445 18.408 106.089 19.68 104.193 19.68ZM104.193 18.468C105.333 18.468 106.005 17.532 106.005 16.26C106.005 15 105.297 14.16 104.193 14.16C103.089 14.16 102.369 15 102.369 16.26C102.369 17.652 103.149 18.468 104.193 18.468ZM111.458 22.092C109.682 22.092 108.458 21.228 108.458 19.86H109.874C109.874 20.46 110.51 20.94 111.458 20.94C112.586 20.94 113.174 20.268 113.174 19.308V18.408C112.766 19.02 112.058 19.404 111.146 19.404C109.442 19.404 108.218 18.084 108.218 16.188C108.218 14.28 109.442 12.948 111.134 12.948C112.13 12.948 112.934 13.416 113.33 14.124L113.45 13.14H114.578V19.308C114.578 20.988 113.39 22.092 111.458 22.092ZM111.422 18.216C112.454 18.216 113.174 17.376 113.174 16.176C113.174 14.976 112.454 14.148 111.422 14.148C110.39 14.148 109.682 14.976 109.682 16.188C109.682 17.388 110.39 18.216 111.422 18.216ZM117.423 19.5H116.007V13.14H117.147L117.315 14.388C117.723 13.524 118.467 13.068 119.523 13.068H119.763V14.448H119.523C118.203 14.448 117.423 15.156 117.423 16.356V19.5ZM122.689 19.632C121.225 19.632 120.265 18.924 120.277 17.736C120.289 16.248 121.765 15.936 123.001 15.792C123.961 15.684 124.669 15.648 124.681 15.144C124.669 14.52 124.189 14.112 123.373 14.112C122.533 14.112 121.933 14.568 121.849 15.228H120.421C120.553 13.884 121.753 12.948 123.397 12.948C125.113 12.948 126.061 13.884 126.061 15.24V18.12C126.061 18.3 126.157 18.396 126.373 18.396H126.721V19.5H126.049C125.401 19.5 125.005 19.236 124.897 18.756C124.873 18.696 124.849 18.612 124.837 18.54C124.465 19.224 123.769 19.632 122.689 19.632ZM122.977 18.516C123.949 18.516 124.681 17.964 124.681 17.112V16.224C124.441 16.596 123.829 16.68 123.157 16.764C122.365 16.86 121.705 16.968 121.705 17.64C121.705 18.192 122.149 18.516 122.977 18.516ZM129.071 19.5H127.655V13.14H128.795L128.903 14.028C129.299 13.404 130.079 12.948 131.027 12.948C131.939 12.948 132.635 13.404 132.971 14.136C133.331 13.464 134.147 12.948 135.155 12.948C136.487 12.948 137.339 13.896 137.339 15.264V19.5H135.911V15.336C135.911 14.628 135.479 14.172 134.795 14.172C133.823 14.172 133.211 14.808 133.199 15.648V19.5H131.783V15.336C131.783 14.628 131.351 14.172 130.667 14.172C129.695 14.172 129.083 14.808 129.071 15.648V19.5Z" fill="black"/>
<path d="M16.2154 32L32.253 21.3347V0L16.2154 10.6654L0.173828 0V21.3347L16.2154 32Z" fill="#FF5C00"/>
</svg>
