<svg width="264" height="49" viewBox="0 0 264 49" fill="none" xmlns="http://www.w3.org/2000/svg">
<path d="M16.0416 40L32.0792 29.3347V8L16.0416 18.6654L0 8V29.3347L16.0416 40Z" fill="#FF5C00"/>
<path d="M32.0791 29.3347L16.0415 18.6654L32.0791 8V29.3347Z" fill="url(#paint0_linear_898_36)"/>
<mask id="mask0_898_36" style="mask-type:luminance" maskUnits="userSpaceOnUse" x="40" y="0" width="224" height="33">
<path d="M263.304 0.634766H40V32.6348H263.304V0.634766Z" fill="white"/>
</mask>
<g mask="url(#mask0_898_36)">
<path d="M66.8166 9.38721H64.6959C60.9172 9.38721 57.8428 12.4616 57.8428 16.2403V20.86C57.8428 24.6387 60.9172 27.7132 64.6959 27.7132H66.8166C70.5953 27.7132 73.6697 24.6387 73.6697 20.86V16.2403C73.6697 12.4616 70.5953 9.38721 66.8166 9.38721ZM70.2975 20.856C70.2975 22.7755 68.7361 24.3369 66.8206 24.3369H64.6999C62.7804 24.3369 61.2231 22.7755 61.2231 20.856V16.2363C61.2231 14.3168 62.7844 12.7554 64.6999 12.7554H66.8206C68.7402 12.7554 70.2975 14.3168 70.2975 16.2363V20.856Z" fill="#1C0A08"/>
<path d="M112.74 9.38721H110.62C106.841 9.38721 103.767 12.4616 103.767 16.2403V20.86C103.767 24.6387 106.841 27.7132 110.62 27.7132C113.787 27.7132 115.702 27.7132 118.736 26.0029L117.078 23.0653C114.817 24.3409 113.674 24.3409 110.62 24.3409C108.7 24.3409 107.139 22.7796 107.139 20.86V20.6307H119.594V16.2403C119.594 12.4616 116.519 9.38721 112.74 9.38721ZM116.217 17.2584H107.139V16.2403C107.139 14.3208 108.7 12.7594 110.62 12.7594H112.74C114.66 12.7594 116.221 14.3208 116.221 16.2403V17.2584H116.217Z" fill="#1C0A08"/>
<path d="M97.9555 21.4193C97.9555 23.029 96.6476 24.3368 95.0379 24.3368H93.2472C91.6375 24.3368 90.3297 23.029 90.3297 21.4193V9.75732H86.9575V21.4193C86.9575 23.029 85.6496 24.3368 84.04 24.3368H82.2492C80.6396 24.3368 79.3317 23.029 79.3317 21.4193V9.75732H75.9595V21.4193C75.9595 24.8881 78.7844 27.7131 82.2532 27.7131H84.044C85.8629 27.7131 87.5007 26.9364 88.6516 25.701C89.8025 26.9364 91.4404 27.7131 93.2552 27.7131H95.046C98.5148 27.7131 101.34 24.8881 101.34 21.4193V9.75732H97.9675V21.4193H97.9555Z" fill="#1C0A08"/>
<path d="M48.9738 9.38733H46.8531C43.0744 9.38733 40 12.4617 40 16.2404V32.6348H43.3722V26.7515C44.3944 27.3551 45.5815 27.7092 46.8491 27.7092H48.9698C52.7485 27.7092 55.8229 24.6348 55.8229 20.8561V16.2364C55.8229 12.4577 52.7485 9.3833 48.9698 9.3833L48.9738 9.38733ZM52.4547 20.8561C52.4547 22.7756 50.8934 24.337 48.9779 24.337H46.8571C44.9376 24.337 43.3803 22.7756 43.3803 20.8561V16.2364C43.3803 14.3169 44.9417 12.7555 46.8571 12.7555H48.9779C50.8974 12.7555 52.4547 14.3169 52.4547 16.2364V20.8561Z" fill="#1C0A08"/>
<path d="M121.807 16.2162V27.3389H125.179V16.2162C125.179 15.182 125.179 12.7594 129.598 12.7594V9.38721C124.716 9.38721 121.803 11.9385 121.803 16.2162H121.807Z" fill="#1C0A08"/>
<path d="M132.04 7.94664V27.3431H135.412V12.7595H140.257V9.38729H135.412V7.94664C135.412 5.29875 136.7 4.007 139.348 4.007H140.257V0.634766H139.348C134.837 0.634766 132.036 3.43557 132.036 7.94664H132.04Z" fill="#1C0A08"/>
<path d="M157.159 16.2403C157.159 12.4616 154.085 9.38721 150.306 9.38721H148.185C144.406 9.38721 141.332 12.4616 141.332 16.2403V20.86C141.332 24.6387 144.406 27.7132 148.185 27.7132H150.306C154.085 27.7132 157.159 24.6387 157.159 20.86V16.2403ZM153.787 20.856C153.787 22.7755 152.225 24.3369 150.306 24.3369H148.185C146.266 24.3369 144.708 22.7755 144.708 20.856V16.2363C144.708 14.3168 146.27 12.7554 148.185 12.7554H150.306C152.225 12.7554 153.787 14.3168 153.787 16.2363V20.856Z" fill="#1C0A08"/>
<path d="M176.274 9.41162H171.875L166.584 15.7376L161.292 9.41162H156.894L164.382 18.3654L156.898 27.319H161.296L166.584 20.9972L171.871 27.319H176.27L168.781 18.3654L176.274 9.41162Z" fill="#1C0A08"/>
<g opacity="0.5">
<path d="M221.637 20.2241V15.9827C221.637 12.2563 218.603 9.22217 214.877 9.22217H212.708C208.981 9.22217 205.947 12.2563 205.947 15.9827V20.703C205.947 24.4294 208.981 27.4636 212.708 27.4636C216.016 27.4636 217.839 27.4636 220.885 25.7453L219.432 23.1698C217.062 24.5058 215.786 24.5058 212.708 24.5058C210.611 24.5058 208.905 22.7996 208.905 20.703V20.2241H221.637ZM208.905 15.9827C208.905 13.8861 210.611 12.1799 212.708 12.1799H214.877C216.973 12.1799 218.68 13.8861 218.68 15.9827V17.2704H208.905V15.9827Z" fill="#1C0A08"/>
<path d="M256.74 9.22217C253.585 9.22217 251.304 9.22217 248.354 10.9525L249.847 13.5038C252.104 12.1799 253.75 12.1799 256.74 12.1799C258.728 12.1799 260.346 13.8861 260.346 15.9827V16.0954L252.137 17.1175C249.831 17.4032 248.092 19.4193 248.092 21.8016V22.7433C248.092 25.3469 250.153 27.4636 252.688 27.4636H263.3V15.9827C263.3 12.2563 260.354 9.22217 256.736 9.22217H256.74ZM260.35 24.5058H252.696C251.79 24.5058 251.054 23.7171 251.054 22.7433V21.8016C251.054 20.9082 251.678 20.1557 252.507 20.0511L260.35 19.0732V24.5099V24.5058Z" fill="#1C0A08"/>
<path d="M197.533 9.25437H195.706C193.819 9.25437 192.133 10.1035 190.994 11.4394C189.859 10.0833 188.157 9.22217 186.253 9.22217H184.426C181.014 9.22217 178.237 11.9988 178.237 15.4113V27.3348H181.195V15.4113C181.195 13.6286 182.644 12.1799 184.426 12.1799H186.253C188.036 12.1799 189.485 13.6286 189.485 15.4113V27.3348H189.517V27.3671H192.475V15.4435C192.475 13.6608 193.923 12.2121 195.706 12.2121H197.533C199.316 12.2121 200.764 13.6608 200.764 15.4435V27.3671H203.722V15.4435C203.722 12.031 200.946 9.25437 197.533 9.25437Z" fill="#1C0A08"/>
<path d="M245.593 9.35547H242.636V27.3313H245.593V9.35547Z" fill="#1C0A08"/>
<path d="M237.091 3.23047V10.3975C236.008 9.65703 234.696 9.22242 233.288 9.22242H230.628C226.901 9.22242 223.867 12.2566 223.867 15.983V20.7033C223.867 24.4297 226.901 27.4639 230.628 27.4639H233.288C237.014 27.4639 240.048 24.4297 240.048 20.7033V3.23047H237.091ZM237.091 20.7033C237.091 22.7999 235.384 24.5061 233.288 24.5061H230.628C228.531 24.5061 226.825 22.7999 226.825 20.7033V15.983C226.825 13.8864 228.531 12.1802 230.628 12.1802H233.288C235.384 12.1802 237.091 13.8864 237.091 15.983V20.7033Z" fill="#1C0A08"/>
</g>
</g>
<path d="M170.872 46.0301C168.292 46.0301 166.648 44.2541 166.648 41.6261C166.648 39.0821 168.256 37.2701 170.872 37.2701C173.056 37.2701 174.556 38.5421 174.916 40.6901H173.44C173.176 39.3701 172.204 38.5661 170.872 38.5661C169.18 38.5661 168.124 39.7541 168.124 41.6261C168.124 43.5461 169.18 44.7221 170.872 44.7221C172.228 44.7221 173.176 43.9421 173.44 42.6101H174.916C174.532 44.7941 173.068 46.0301 170.872 46.0301ZM177.549 45.8501H176.133V39.4901H177.273L177.441 40.7381C177.849 39.8741 178.593 39.4181 179.649 39.4181H179.889V40.7981H179.649C178.329 40.7981 177.549 41.5061 177.549 42.7061V45.8501ZM183.585 46.0301C181.641 46.0301 180.309 44.6381 180.309 42.6941C180.309 40.5941 181.689 39.2981 183.465 39.2981C185.265 39.2981 186.465 40.5581 186.501 42.6221V42.9581H181.725C181.821 44.0741 182.517 44.8301 183.597 44.8301C184.329 44.8301 184.881 44.4701 185.097 43.8341H186.477C186.153 45.2021 185.085 46.0301 183.585 46.0301ZM181.785 41.9621H185.037C184.857 41.0501 184.293 40.4981 183.465 40.4981C182.625 40.4981 182.001 41.0501 181.785 41.9621ZM189.706 45.9821C188.242 45.9821 187.282 45.2741 187.294 44.0861C187.306 42.5981 188.782 42.2861 190.018 42.1421C190.978 42.0341 191.686 41.9981 191.698 41.4941C191.686 40.8701 191.206 40.4621 190.39 40.4621C189.55 40.4621 188.95 40.9181 188.866 41.5781H187.438C187.57 40.2341 188.77 39.2981 190.414 39.2981C192.13 39.2981 193.078 40.2341 193.078 41.5901V44.4701C193.078 44.6501 193.174 44.7461 193.39 44.7461H193.738V45.8501H193.066C192.418 45.8501 192.022 45.5861 191.914 45.1061C191.89 45.0461 191.866 44.9621 191.854 44.8901C191.482 45.5741 190.786 45.9821 189.706 45.9821ZM189.994 44.8661C190.966 44.8661 191.698 44.3141 191.698 43.4621V42.5741C191.458 42.9461 190.846 43.0301 190.174 43.1141C189.382 43.2101 188.722 43.3181 188.722 43.9901C188.722 44.5421 189.166 44.8661 189.994 44.8661ZM198.145 45.8501H197.329C195.949 45.8501 195.205 45.1661 195.205 43.9061V40.6901H194.089V39.4901H195.205V37.3181H196.621V39.4901H198.265V40.6901H196.621V43.8101C196.621 44.3501 196.897 44.6501 197.425 44.6501H198.145V45.8501ZM202.1 46.0301C200.036 46.0301 198.836 44.5781 198.836 42.6101C198.836 40.5341 200.24 39.2981 202.1 39.2981C204.152 39.2981 205.352 40.7381 205.352 42.6101C205.352 44.7581 203.996 46.0301 202.1 46.0301ZM202.1 44.8181C203.24 44.8181 203.912 43.8821 203.912 42.6101C203.912 41.3501 203.204 40.5101 202.1 40.5101C200.996 40.5101 200.276 41.3501 200.276 42.6101C200.276 44.0021 201.056 44.8181 202.1 44.8181ZM207.878 45.8501H206.462V39.4901H207.602L207.77 40.7381C208.178 39.8741 208.922 39.4181 209.978 39.4181H210.218V40.7981H209.978C208.658 40.7981 207.878 41.5061 207.878 42.7061V45.8501ZM215.358 45.8501H213.918V37.4501H218.178C219.894 37.4501 220.938 38.5901 220.938 40.0901C220.938 41.7821 219.762 42.8141 218.178 42.8141H215.358V45.8501ZM215.358 38.7461V41.5181H218.106C219.006 41.5181 219.474 40.8461 219.474 40.0901C219.474 39.2981 218.934 38.7461 218.106 38.7461H215.358ZM223.499 45.8501H222.083V39.4901H223.223L223.391 40.7381C223.799 39.8741 224.543 39.4181 225.599 39.4181H225.839V40.7981H225.599C224.279 40.7981 223.499 41.5061 223.499 42.7061V45.8501ZM229.522 46.0301C227.458 46.0301 226.258 44.5781 226.258 42.6101C226.258 40.5341 227.662 39.2981 229.522 39.2981C231.574 39.2981 232.774 40.7381 232.774 42.6101C232.774 44.7581 231.418 46.0301 229.522 46.0301ZM229.522 44.8181C230.662 44.8181 231.334 43.8821 231.334 42.6101C231.334 41.3501 230.626 40.5101 229.522 40.5101C228.418 40.5101 227.698 41.3501 227.698 42.6101C227.698 44.0021 228.478 44.8181 229.522 44.8181ZM236.787 48.4421C235.011 48.4421 233.787 47.5781 233.787 46.2101H235.203C235.203 46.8101 235.839 47.2901 236.787 47.2901C237.915 47.2901 238.503 46.6181 238.503 45.6581V44.7581C238.095 45.3701 237.387 45.7541 236.475 45.7541C234.771 45.7541 233.547 44.4341 233.547 42.5381C233.547 40.6301 234.771 39.2981 236.463 39.2981C237.459 39.2981 238.263 39.7661 238.659 40.4741L238.779 39.4901H239.907V45.6581C239.907 47.3381 238.719 48.4421 236.787 48.4421ZM236.751 44.5661C237.783 44.5661 238.503 43.7261 238.503 42.5261C238.503 41.3261 237.783 40.4981 236.751 40.4981C235.719 40.4981 235.011 41.3261 235.011 42.5381C235.011 43.7381 235.719 44.5661 236.751 44.5661ZM242.753 45.8501H241.337V39.4901H242.477L242.645 40.7381C243.053 39.8741 243.797 39.4181 244.853 39.4181H245.093V40.7981H244.853C243.533 40.7981 242.753 41.5061 242.753 42.7061V45.8501ZM248.019 45.9821C246.555 45.9821 245.595 45.2741 245.607 44.0861C245.619 42.5981 247.095 42.2861 248.331 42.1421C249.291 42.0341 249.999 41.9981 250.011 41.4941C249.999 40.8701 249.519 40.4621 248.703 40.4621C247.863 40.4621 247.263 40.9181 247.179 41.5781H245.751C245.883 40.2341 247.083 39.2981 248.727 39.2981C250.443 39.2981 251.391 40.2341 251.391 41.5901V44.4701C251.391 44.6501 251.487 44.7461 251.703 44.7461H252.051V45.8501H251.379C250.731 45.8501 250.335 45.5861 250.227 45.1061C250.203 45.0461 250.179 44.9621 250.167 44.8901C249.795 45.5741 249.099 45.9821 248.019 45.9821ZM248.307 44.8661C249.279 44.8661 250.011 44.3141 250.011 43.4621V42.5741C249.771 42.9461 249.159 43.0301 248.487 43.1141C247.695 43.2101 247.035 43.3181 247.035 43.9901C247.035 44.5421 247.479 44.8661 248.307 44.8661ZM254.401 45.8501H252.985V39.4901H254.125L254.233 40.3781C254.629 39.7541 255.409 39.2981 256.357 39.2981C257.269 39.2981 257.965 39.7541 258.301 40.4861C258.661 39.8141 259.477 39.2981 260.485 39.2981C261.817 39.2981 262.669 40.2461 262.669 41.6141V45.8501H261.241V41.6861C261.241 40.9781 260.809 40.5221 260.125 40.5221C259.153 40.5221 258.541 41.1581 258.529 41.9981V45.8501H257.113V41.6861C257.113 40.9781 256.681 40.5221 255.997 40.5221C255.025 40.5221 254.413 41.1581 254.401 41.9981V45.8501Z" fill="black"/>
<defs>
<linearGradient id="paint0_linear_898_36" x1="20.5151" y1="26.2744" x2="31.2596" y2="19.2038" gradientUnits="userSpaceOnUse">
<stop stop-color="#D1162C"/>
<stop offset="1" stop-color="#FF5500"/>
</linearGradient>
</defs>
</svg>
